<svg xmlns="http://www.w3.org/2000/svg" version="1.1" xmlns:xlink="http://www.w3.org/1999/xlink" xmlns:svgjs="http://svgjs.dev/svgjs" width="2000" height="989" viewBox="0 0 2000 989"><g transform="matrix(1,0,0,1,-1.2121212121213603,-0.9907822197105247)"><svg viewBox="0 0 396 196" data-background-color="#ececea" preserveAspectRatio="xMidYMid meet" height="989" width="2000" xmlns="http://www.w3.org/2000/svg" xmlns:xlink="http://www.w3.org/1999/xlink"><g id="tight-bounds" transform="matrix(1,0,0,1,0.24000000000003752,0.19635320026618786)"><svg viewBox="0 0 395.5199999999999 195.60729359946762" height="195.60729359946762" width="395.5199999999999"><g><svg viewBox="0 0 395.5199999999999 195.60729359946762" height="195.60729359946762" width="395.5199999999999"><g transform="matrix(1,0,0,1,0,145.54147081465752)"><svg viewBox="0 0 395.5199999999999 50.06582278481011" height="50.06582278481011" width="395.5199999999999"><g id="textblocktransform"><svg viewBox="0 0 395.5199999999999 50.06582278481011" height="50.06582278481011" width="395.5199999999999" id="textblock"><g><svg viewBox="0 0 395.5199999999999 50.06582278481011" height="50.06582278481011" width="395.5199999999999"><g transform="matrix(1,0,0,1,0,0)"><svg width="395.5199999999999" viewBox="2.25 -41.5 333.18 42" height="50.06582278481011" data-palette-color="#009b7d"><g class="wordmark-text-0" data-fill-palette-color="primary" id="text-0"><path d="M27.3-8.95L27.5-8.95 40.5-38.5 51.7-38.5 51.7-36.6Q50.1-36.55 49.13-36.2 48.15-35.85 47.63-35.02 47.1-34.2 46.93-32.75 46.75-31.3 46.75-29.05L46.75-29.05 46.75-9.45Q46.75-6.95 46.95-5.5 47.15-4.05 47.73-3.25 48.3-2.45 49.38-2.2 50.45-1.95 52.2-1.9L52.2-1.9 52.2 0 36 0 36-1.9Q37.75-1.95 38.83-2.23 39.9-2.5 40.5-3.25 41.1-4 41.3-5.38 41.5-6.75 41.5-9.1L41.5-9.1 41.5-32.3 41-32.3 26.4 0.5 25.3 0.5 10.95-32.3 10.75-32.3 10.75-9.45Q10.75-6.95 10.95-5.5 11.15-4.05 11.73-3.25 12.3-2.45 13.38-2.2 14.45-1.95 16.2-1.9L16.2-1.9 16.2 0 2.25 0 2.25-1.9Q4-1.95 5.08-2.23 6.15-2.5 6.75-3.25 7.35-4 7.55-5.38 7.75-6.75 7.75-9.1L7.75-9.1 7.75-29.4Q7.75-31.5 7.58-32.88 7.4-34.25 6.88-35.05 6.35-35.85 5.35-36.18 4.35-36.5 2.75-36.6L2.75-36.6 2.75-38.5 14.7-38.5 27.3-8.95ZM71.95-10.85L71.95-14.8Q69.1-13.7 67.12-12.65 65.15-11.6 63.95-10.55 62.75-9.5 62.22-8.45 61.7-7.4 61.7-6.3L61.7-6.3Q61.7-4.65 62.8-3.6 63.9-2.55 65.7-2.55L65.7-2.55Q67-2.55 68.12-3.2 69.25-3.85 70.1-4.98 70.95-6.1 71.45-7.63 71.95-9.15 71.95-10.85L71.95-10.85ZM64.75-13.8L71.95-16.95 71.95-19Q71.95-25.1 66.75-25.1L66.75-25.1Q65.9-25.1 65.3-24.95 64.7-24.8 64.3-24.45 63.9-24.1 63.57-23.45 63.25-22.8 62.95-21.85L62.95-21.85Q62.4-20.4 61.87-19.93 61.35-19.45 60.35-19.45L60.35-19.45Q57.85-19.45 57.85-21.95L57.85-21.95Q57.85-24.35 60.4-25.68 62.95-27 67.65-27L67.65-27Q72.65-27 74.75-25.23 76.85-23.45 76.85-19.2L76.85-19.2 76.85-8Q76.85-2.3 79.1-2.3L79.1-2.3Q79.8-2.3 80.45-2.48 81.1-2.65 81.55-3.4L81.55-3.4 82.25-2.2Q81.65-1.05 80.05-0.28 78.45 0.5 76.7 0.5L76.7 0.5Q74.5 0.5 73.42-0.9 72.35-2.3 72.35-4.85L72.35-4.85 72.1-4.85Q70.8-2.4 68.5-0.98 66.2 0.45 63.4 0.45L63.4 0.45Q60.25 0.45 58.45-1.15 56.65-2.75 56.65-5.45L56.65-5.45Q56.65-6.65 57.07-7.75 57.5-8.85 58.45-9.85 59.4-10.85 60.95-11.83 62.5-12.8 64.75-13.8L64.75-13.8ZM93.3-9.65L93.3-7.95Q93.3-5.9 93.4-4.7 93.5-3.5 93.92-2.88 94.35-2.25 95.15-2.05 95.95-1.85 97.4-1.75L97.4-1.75 97.4 0 84.1 0 84.1-1.75Q85.55-1.8 86.4-2.02 87.25-2.25 87.7-2.85 88.15-3.45 88.27-4.58 88.4-5.7 88.4-7.6L88.4-7.6 88.4-13.45Q88.4-16.85 88.32-18.75 88.25-20.65 87.82-21.55 87.4-22.45 86.5-22.63 85.6-22.8 84-22.8L84-22.8 84-24.55 92.75-26.45 93.45-20.25 93.65-20.25Q94.3-21.75 95.27-23 96.25-24.25 97.4-25.13 98.55-26 99.8-26.5 101.05-27 102.35-27L102.35-27Q103.95-27 104.87-26.23 105.8-25.45 105.8-24.15L105.8-24.15Q105.8-22.95 105.05-22.28 104.3-21.6 102.9-21.6L102.9-21.6Q102.1-21.6 101.55-21.8 101-22 100.57-22.23 100.15-22.45 99.77-22.65 99.4-22.85 98.95-22.85L98.95-22.85Q97.6-22.85 96.25-21.13 94.9-19.4 94.15-16.75L94.15-16.75Q93.75-15.3 93.52-13.48 93.3-11.65 93.3-9.65L93.3-9.65ZM111.04-23.35L108.04-23.35 108.04-25.2Q110.69-26.75 112.19-28.3 113.69-29.85 114.49-32L114.49-32 115.94-32 115.94-25.7 122.64-25.7 122.64-23.35 115.94-23.35 115.94-8.15Q115.94-6.4 116.12-5.2 116.29-4 116.69-3.28 117.09-2.55 117.74-2.25 118.39-1.95 119.39-1.95L119.39-1.95Q120.64-1.95 121.52-2.48 122.39-3 123.24-4.25L123.24-4.25 124.49-3.3Q123.79-1.45 122.07-0.48 120.34 0.5 117.79 0.5L117.79 0.5Q114.49 0.5 112.77-1.07 111.04-2.65 111.04-5.6L111.04-5.6 111.04-23.35ZM135.34-14.35L135.34-7.95Q135.34-5.9 135.44-4.7 135.54-3.5 135.97-2.88 136.39-2.25 137.19-2.05 137.99-1.85 139.44-1.75L139.44-1.75 139.44 0 126.14 0 126.14-1.75Q127.59-1.85 128.44-2.05 129.29-2.25 129.74-2.85 130.19-3.45 130.32-4.58 130.44-5.7 130.44-7.6L130.44-7.6 130.44-28.55Q130.44-31.5 130.37-33.25 130.29-35 130.09-35.9L130.09-35.9Q129.99-36.5 129.77-36.88 129.54-37.25 129.09-37.48 128.64-37.7 127.89-37.8 127.14-37.9 126.04-37.9L126.04-37.9 126.04-39.6 135.24-41.5 135.24-22.45 135.44-22.45Q136.19-23.45 137.32-24.28 138.44-25.1 139.74-25.7 141.04-26.3 142.47-26.65 143.89-27 145.24-27L145.24-27Q147.54-27 149.47-26.2 151.39-25.4 152.44-24.05L152.44-24.05Q153.29-22.9 153.69-21.03 154.09-19.15 154.09-15.95L154.09-15.95 154.09-7.95Q154.09-5.9 154.19-4.73 154.29-3.55 154.72-2.9 155.14-2.25 155.94-2.05 156.74-1.85 158.19-1.75L158.19-1.75 158.19 0 144.94 0 144.94-1.75Q146.34-1.8 147.19-2.02 148.04-2.25 148.47-2.85 148.89-3.45 149.02-4.58 149.14-5.7 149.14-7.6L149.14-7.6 149.14-13.9Q149.14-19.5 147.84-21.88 146.54-24.25 143.49-24.25L143.49-24.25Q141.14-24.25 139.22-23.05 137.29-21.85 136.19-19.75L136.19-19.75Q135.94-19.2 135.77-18.73 135.59-18.25 135.49-17.65 135.39-17.05 135.37-16.28 135.34-15.5 135.34-14.35L135.34-14.35ZM176.79-10.85L176.79-14.8Q173.94-13.7 171.96-12.65 169.99-11.6 168.79-10.55 167.59-9.5 167.06-8.45 166.54-7.4 166.54-6.3L166.54-6.3Q166.54-4.65 167.64-3.6 168.74-2.55 170.54-2.55L170.54-2.55Q171.84-2.55 172.96-3.2 174.09-3.85 174.94-4.98 175.79-6.1 176.29-7.63 176.79-9.15 176.79-10.85L176.79-10.85ZM169.59-13.8L176.79-16.95 176.79-19Q176.79-25.1 171.59-25.1L171.59-25.1Q170.74-25.1 170.14-24.95 169.54-24.8 169.14-24.45 168.74-24.1 168.41-23.45 168.09-22.8 167.79-21.85L167.79-21.85Q167.24-20.4 166.71-19.93 166.19-19.45 165.19-19.45L165.19-19.45Q162.69-19.45 162.69-21.95L162.69-21.95Q162.69-24.35 165.24-25.68 167.79-27 172.49-27L172.49-27Q177.49-27 179.59-25.23 181.69-23.45 181.69-19.2L181.69-19.2 181.69-8Q181.69-2.3 183.94-2.3L183.94-2.3Q184.64-2.3 185.29-2.48 185.94-2.65 186.39-3.4L186.39-3.4 187.09-2.2Q186.49-1.05 184.89-0.28 183.29 0.5 181.54 0.5L181.54 0.5Q179.34 0.5 178.26-0.9 177.19-2.3 177.19-4.85L177.19-4.85 176.94-4.85Q175.64-2.4 173.34-0.98 171.04 0.45 168.24 0.45L168.24 0.45Q165.09 0.45 163.29-1.15 161.49-2.75 161.49-5.45L161.49-5.45Q161.49-6.65 161.91-7.75 162.34-8.85 163.29-9.85 164.24-10.85 165.79-11.83 167.34-12.8 169.59-13.8L169.59-13.8Z" fill="#009b7d" data-fill-palette-color="primary"></path><path d="M205.09-0.55L204.34-11.75 206.19-11.75Q206.54-9.5 207.51-7.7 208.49-5.9 209.96-4.65 211.44-3.4 213.36-2.73 215.29-2.05 217.54-2.05L217.54-2.05Q221.24-2.05 223.39-3.8 225.54-5.55 225.54-8.55L225.54-8.55Q225.54-9.8 225.11-10.85 224.69-11.9 223.69-12.88 222.69-13.85 221.01-14.8 219.34-15.75 216.79-16.85L216.79-16.85Q213.69-18.2 211.59-19.45 209.49-20.7 208.24-22.05 206.99-23.4 206.46-24.93 205.94-26.45 205.94-28.4L205.94-28.4Q205.94-30.7 206.76-32.65 207.59-34.6 209.09-36.02 210.59-37.45 212.64-38.23 214.69-39 217.14-39L217.14-39Q219.34-39 221.24-38.3 223.14-37.6 225.09-36.05L225.09-36.05 226.39-38.3 227.54-38.3 228.09-28.35 226.24-28.35Q225.04-32.45 222.76-34.45 220.49-36.45 217.29-36.45L217.29-36.45Q214.24-36.45 212.44-34.95 210.64-33.45 210.64-30.9L210.64-30.9Q210.64-29.7 211.04-28.73 211.44-27.75 212.34-26.88 213.24-26 214.69-25.13 216.14-24.25 218.29-23.3L218.29-23.3Q221.99-21.65 224.44-20.23 226.89-18.8 228.34-17.38 229.79-15.95 230.39-14.38 230.99-12.8 230.99-10.85L230.99-10.85Q230.99-8.35 229.99-6.25 228.99-4.15 227.19-2.65 225.39-1.15 222.89-0.33 220.39 0.5 217.39 0.5L217.39 0.5Q214.54 0.5 212.26-0.3 209.99-1.1 207.64-3L207.64-3 206.24-0.55 205.09-0.55ZM238.69-23.35L235.69-23.35 235.69-25.2Q238.34-26.75 239.84-28.3 241.34-29.85 242.14-32L242.14-32 243.59-32 243.59-25.7 250.29-25.7 250.29-23.35 243.59-23.35 243.59-8.15Q243.59-6.4 243.76-5.2 243.94-4 244.34-3.28 244.74-2.55 245.39-2.25 246.04-1.95 247.04-1.95L247.04-1.95Q248.29-1.95 249.16-2.48 250.04-3 250.89-4.25L250.89-4.25 252.14-3.3Q251.43-1.45 249.71-0.48 247.99 0.5 245.44 0.5L245.44 0.5Q242.14 0.5 240.41-1.07 238.69-2.65 238.69-5.6L238.69-5.6 238.69-23.35ZM268.83-27L268.83-27Q271.68-27 274.23-25.98 276.78-24.95 278.71-23.15 280.63-21.35 281.76-18.88 282.88-16.4 282.88-13.45L282.88-13.45Q282.88-10.4 281.76-7.85 280.63-5.3 278.71-3.45 276.78-1.6 274.23-0.55 271.68 0.5 268.83 0.5L268.83 0.5Q266.03 0.5 263.51-0.53 260.98-1.55 259.08-3.4 257.18-5.25 256.08-7.83 254.98-10.4 254.98-13.45L254.98-13.45Q254.98-16.4 256.08-18.9 257.18-21.4 259.08-23.2 260.98-25 263.51-26 266.03-27 268.83-27ZM268.83-24.6L268.83-24.6Q266.98-24.6 265.46-23.8 263.93-23 262.86-21.53 261.78-20.05 261.21-17.98 260.63-15.9 260.63-13.4L260.63-13.4Q260.63-10.8 261.21-8.7 261.78-6.6 262.86-5.13 263.93-3.65 265.43-2.85 266.93-2.05 268.83-2.05L268.83-2.05Q270.73-2.05 272.28-2.85 273.83-3.65 274.93-5.15 276.03-6.65 276.63-8.75 277.23-10.85 277.23-13.4L277.23-13.4Q277.23-15.9 276.63-17.95 276.03-20 274.93-21.48 273.83-22.95 272.28-23.78 270.73-24.6 268.83-24.6ZM296.38-9.65L296.38-7.95Q296.38-5.9 296.48-4.7 296.58-3.5 297.01-2.88 297.43-2.25 298.23-2.05 299.03-1.85 300.48-1.75L300.48-1.75 300.48 0 287.18 0 287.18-1.75Q288.63-1.8 289.48-2.02 290.33-2.25 290.78-2.85 291.23-3.45 291.36-4.58 291.48-5.7 291.48-7.6L291.48-7.6 291.48-13.45Q291.48-16.85 291.41-18.75 291.33-20.65 290.91-21.55 290.48-22.45 289.58-22.63 288.68-22.8 287.08-22.8L287.08-22.8 287.08-24.55 295.83-26.45 296.53-20.25 296.73-20.25Q297.38-21.75 298.36-23 299.33-24.25 300.48-25.13 301.63-26 302.88-26.5 304.13-27 305.43-27L305.43-27Q307.03-27 307.96-26.23 308.88-25.45 308.88-24.15L308.88-24.15Q308.88-22.95 308.13-22.28 307.38-21.6 305.98-21.6L305.98-21.6Q305.18-21.6 304.63-21.8 304.08-22 303.66-22.23 303.23-22.45 302.86-22.65 302.48-22.85 302.03-22.85L302.03-22.85Q300.68-22.85 299.33-21.13 297.98-19.4 297.23-16.75L297.23-16.75Q296.83-15.3 296.61-13.48 296.38-11.65 296.38-9.65L296.38-9.65ZM333.68-6.05L335.23-4.65Q330.98 0.5 324.68 0.5L324.68 0.5Q321.73 0.5 319.33-0.48 316.93-1.45 315.2-3.23 313.48-5 312.53-7.48 311.58-9.95 311.58-12.95L311.58-12.95Q311.58-16 312.58-18.6 313.58-21.2 315.4-23.05 317.23-24.9 319.75-25.95 322.28-27 325.28-27L325.28-27Q330.13-27 332.78-24.38 335.43-21.75 335.43-16.85L335.43-16.85Q335.43-16.15 335.15-16 334.88-15.85 333.88-15.85L333.88-15.85 317.43-15.85Q317.33-15.45 317.28-14.88 317.23-14.3 317.23-13.6L317.23-13.6Q317.23-11 317.85-8.88 318.48-6.75 319.65-5.25 320.83-3.75 322.45-2.93 324.08-2.1 326.08-2.1L326.08-2.1Q328.18-2.1 329.98-3.03 331.78-3.95 333.68-6.05L333.68-6.05ZM317.78-18.15L326.98-18.15Q327.98-18.15 328.58-18.2 329.18-18.25 329.48-18.4 329.78-18.55 329.88-18.82 329.98-19.1 329.98-19.55L329.98-19.55Q329.98-21.85 328.5-23.23 327.03-24.6 324.48-24.6L324.48-24.6Q319.08-24.6 317.78-18.15L317.78-18.15Z" fill="#ffbf5d" data-fill-palette-color="accent"></path></g></svg></g></svg></g></svg></g></svg></g><g transform="matrix(1,0,0,1,136.80860377241805,0)"><svg viewBox="0 0 121.90279245516385 121.90279245516385" height="121.90279245516385" width="121.90279245516385"><g><svg></svg></g><g id="icon-0"><svg viewBox="0 0 121.90279245516385 121.90279245516385" height="121.90279245516385" width="121.90279245516385"><g><path d="M0 60.951c0-33.663 27.289-60.951 60.951-60.951 33.663 0 60.951 27.289 60.952 60.951 0 33.663-27.289 60.951-60.952 60.952-33.663 0-60.951-27.289-60.951-60.952zM60.951 117.388c31.169 0 56.436-25.267 56.437-56.437 0-31.169-25.267-56.436-56.437-56.436-31.169 0-56.436 25.267-56.436 56.436 0 31.169 25.267 56.436 56.436 56.437z" data-fill-palette-color="accent" fill="#ffbf5d" stroke="transparent"></path></g><g transform="matrix(1,0,0,1,25.67893541573531,32.00625545364754)"><svg viewBox="0 0 70.54492162369323 57.89028154786876" height="57.89028154786876" width="70.54492162369323"><g><svg xmlns="http://www.w3.org/2000/svg" xmlns:xlink="http://www.w3.org/1999/xlink" version="1.1" x="0" y="0" viewBox="0.5319999999999996 9.406999999999998 98.93301351808694 81.186" enable-background="new 0 0 100 100" xml:space="preserve" height="57.89028154786876" width="70.54492162369323" class="icon-cg-0" data-fill-palette-color="accent" id="cg-0"><g fill="#ffbf5d" data-fill-palette-color="accent"><path fill="#ffbf5d" d="M82.269 56.016H48.895c-1.184 0-2.144 0.96-2.144 2.144v21.496c0 1.184 0.96 2.144 2.144 2.144h33.374c1.184 0 2.144-0.96 2.144-2.144V58.161C84.413 56.976 83.453 56.016 82.269 56.016zM80.125 77.513H51.039V60.305h29.085V77.513z" data-fill-palette-color="accent"></path><path fill="#ffbf5d" d="M98.855 30.269l-9.17-9.36v-9.358c0-1.184-0.96-2.144-2.144-2.144H12.459c-1.184 0-2.144 0.96-2.144 2.144v9.358l-9.17 9.36c-0.393 0.401-0.613 0.939-0.613 1.501v8.16c0 4.196 2.238 7.879 5.582 9.918v38.601c0 1.184 0.96 2.144 2.144 2.144h10.815c0.011 0 0.02-0.003 0.031-0.003 0.011 0 0.02 0.003 0.031 0.003 1.184 0 2.144-0.96 2.144-2.144V60.305h15.371v28.144c0 1.184 0.96 2.144 2.144 2.144h52.508c1.184 0 2.144-0.96 2.144-2.144V50.1c3.585-1.978 6.019-5.795 6.019-10.17v-8.16C99.467 31.208 99.247 30.67 98.855 30.269zM14.604 13.696h70.792v5.945H14.604V13.696zM89.16 86.304H40.94V58.161c0-1.184-0.96-2.144-2.144-2.144h-19.66c-1.184 0-2.144 0.96-2.144 2.144v28.144h-6.588V51.408c0.567 0.086 1.147 0.13 1.738 0.13 3.901 0 7.358-1.934 9.465-4.894 2.106 2.96 5.564 4.894 9.465 4.894s7.358-1.934 9.465-4.894c2.106 2.96 5.564 4.894 9.465 4.894s7.359-1.934 9.465-4.894c2.106 2.959 5.564 4.894 9.465 4.894s7.358-1.934 9.465-4.894c2.106 2.96 5.564 4.894 9.465 4.894 0.44 0 0.874-0.027 1.302-0.075V86.304zM95.178 39.929c0 4.036-3.284 7.32-7.32 7.32s-7.32-3.284-7.32-7.32c0-1.184-0.96-2.144-2.144-2.144-1.184 0-2.144 0.96-2.144 2.144 0 4.036-3.284 7.32-7.32 7.32s-7.32-3.284-7.32-7.32c0-1.184-0.96-2.144-2.144-2.144-1.184 0-2.144 0.96-2.144 2.144 0 4.036-3.284 7.32-7.321 7.32s-7.32-3.284-7.32-7.32c0-1.184-0.96-2.144-2.144-2.144-1.184 0-2.144 0.96-2.144 2.144 0 4.036-3.284 7.32-7.32 7.32s-7.32-3.284-7.32-7.32c0-1.184-0.96-2.144-2.144-2.144s-2.144 0.96-2.144 2.144c0 4.036-3.284 7.32-7.32 7.32s-7.32-3.284-7.32-7.32v-7.285l8.539-8.716H86.64l8.539 8.716V39.929z" data-fill-palette-color="accent"></path></g></svg></g></svg></g></svg></g></svg></g><g></g></svg></g><defs></defs></svg><rect width="395.5199999999999" height="195.60729359946762" fill="none" stroke="none" visibility="hidden"></rect></g></svg></g></svg>